<svg xmlns="http://www.w3.org/2000/svg" width="2057.717" height="2022.84" viewBox="0 0 2057.717 2022.84">
  <path id="Path_1" data-name="Path 1" d="M722.517,3.794c77.766-25.068,226.959,78.636,337.355,177.057s31.951,173.987,96.6,265.389,122.618,27.387,185.924,99.347,113,109.819,113.651,214.921-3.469,144.972-86.514,190.868-111.156,95.08-126.121,157.231-72.779,155.4-152.16,178.644c-45,9.328-73.369,95.978-134.354,158.548-50,51.3-144.818,64.7-204.46,89.956-90.257,38.223-228.365-47.533-228.365-47.533S-23.677,1442.635.8,962.308,484.778,80.429,722.517,3.794Z" transform="translate(0 1273.534) rotate(-61)" fill="#241556"/>
</svg>
