<svg xmlns="http://www.w3.org/2000/svg" width="1960.516" height="2043.089" viewBox="0 0 1960.516 2043.089">
  <path id="Path_2" data-name="Path 2" d="M750.551,12.065C818.07-2.35,857.9-11.041,935.075,29.083s73.252,83.779,112.823,119.04c100.69,89.721,27.944,159.682,86.631,243.255s112.513,24.361,170.125,90.076,102.988,100.179,102.723,196.763-4.383,133.251-81.114,175.976-90.226,21-140.156,73.183c-23.277,26.339-3.73,65.7-18,122.913s-40.635,80.32-113.812,102.2c-126.9,27.149-410.913,434.23-410.913,434.23S-25.691,1344.862.764,903.286c4.668-77.912,58.242-111.719,71.728-255.112S1.437,418.869,54.709,329.716s123.912-32.373,196.084-91.181,65.3-60.334,154.68-97.416,151.492,51.232,200.24-1.34S676.743,42.715,750.551,12.065Z" transform="matrix(-0.899, 0.438, -0.438, -0.899, 1960.516, 1426.135)" fill="#2320a7"/>
</svg>
