<svg xmlns="http://www.w3.org/2000/svg" width="1641.108" height="1728.414" viewBox="0 0 1641.108 1728.414">
  <path id="Path_4" data-name="Path 4" d="M759.9,3.99c81.79-26.365,238.7,82.706,354.811,186.218s33.6,182.99,101.6,279.122,128.964,28.8,195.545,104.488S1530.7,689.32,1531.391,799.86s-3.649,152.474-90.991,200.745-116.907,100-132.648,165.367-76.545,163.441-160.033,187.887c-47.33,9.811-77.166,100.945-141.306,166.753-52.588,53.956-152.312,68.046-215.04,94.611-94.927,40.2-240.182-49.992-240.182-49.992S-24.9,1517.285.837,1012.1,509.862,84.591,759.9,3.99Z" transform="translate(1527.716 1728.414) rotate(-176)" fill="#160841"/>
</svg>
